<?xml version="1.0" encoding="utf-8"?>
<!-- Generator: Adobe Illustrator 25.0.0, SVG Export Plug-In . SVG Version: 6.00 Build 0)  -->
<svg version="1.1"
	 id="svg17515" xmlns:cc="http://creativecommons.org/ns#" xmlns:dc="http://purl.org/dc/elements/1.1/" xmlns:inkscape="http://www.inkscape.org/namespaces/inkscape" xmlns:rdf="http://www.w3.org/1999/02/22-rdf-syntax-ns#" xmlns:sodipodi="http://sodipodi.sourceforge.net/DTD/sodipodi-0.dtd" xmlns:svg="http://www.w3.org/2000/svg"
	 xmlns="http://www.w3.org/2000/svg" xmlns:xlink="http://www.w3.org/1999/xlink" x="0px" y="0px" viewBox="0 0 32 32"
	 style="enable-background:new 0 0 32 32;" xml:space="preserve">
<style type="text/css">
	.st0{fill:#88B03C;}
	.st1{fill-rule:evenodd;clip-rule:evenodd;fill:#81A53C;}
	.st2{fill-rule:evenodd;clip-rule:evenodd;fill:#94B84F;}
</style>
<g id="layer1" transform="translate(0,-1020.3622)">
	<g id="g41012" transform="translate(771.91739,120.01351)">
		<path id="path24016" class="st0" d="M-749.1,920c-3.2,5.6-8.8,5.9-11.5,4.4s-5.2-6.5-2-12.1s13.7-8.3,13.7-8.3
			S-745.8,914.4-749.1,920z"/>
		<g id="g40993" transform="translate(0.13258252,0)">
			<path id="path40983" class="st1" d="M-751.4,907.4c-0.2-0.1-0.5,0-0.7,0.2c0,0,0,0,0,0l-2.5,4.4l-0.7-2.6c0-0.1-0.1-0.2-0.2-0.3
				c-0.2-0.1-0.5-0.1-0.7,0.2c-0.1,0.1-0.1,0.3,0,0.4l1,3.5l-1.4,2.5l-0.9-3.3c0-0.1-0.1-0.2-0.2-0.3c-0.2-0.1-0.5-0.1-0.7,0.2
				c-0.1,0.1-0.1,0.3,0,0.4l1.1,4.2l-1.4,2.5l-1-3.6c0-0.1-0.1-0.2-0.2-0.3c-0.2-0.1-0.5-0.1-0.7,0.2c-0.1,0.1-0.1,0.3,0,0.4
				l1.2,4.6l-1.9,3.2c0.3,0.2,0.5,0.4,0.8,0.6c0,0,0,0,0.1,0l1.9-3.3l4.6-1.2c0.3-0.1,0.4-0.3,0.4-0.6c-0.1-0.3-0.3-0.4-0.6-0.4
				c0,0,0,0,0,0l-3.6,1l1.4-2.5l4.2-1.1c0.3-0.1,0.4-0.3,0.4-0.6c-0.1-0.3-0.3-0.4-0.6-0.4c0,0,0,0,0,0l-3.3,0.9l1.4-2.5l3.5-1
				c0.3-0.1,0.4-0.3,0.4-0.6c-0.1-0.3-0.3-0.4-0.6-0.4c0,0,0,0,0,0l-2.6,0.7l2.5-4.4C-751.1,907.9-751.2,907.6-751.4,907.4
				C-751.4,907.4-751.4,907.4-751.4,907.4z"/>
		</g>
		<path id="path24019" class="st2" d="M-750.8,907.5c-0.2-0.1-0.5,0-0.7,0.2l0,0l-11.7,20.4c-0.1,0.2-0.1,0.5,0.2,0.7
			c0.2,0.1,0.5,0.1,0.7-0.2c0,0,0,0,0,0l11.7-20.4C-750.5,907.9-750.6,907.6-750.8,907.5C-750.8,907.5-750.8,907.5-750.8,907.5z"/>
		<path id="path24021" class="st2" d="M-754.9,909.1c-0.2-0.1-0.5-0.1-0.7,0.2c-0.1,0.1-0.1,0.3,0,0.4l1,3.7
			c0.1,0.3,0.3,0.4,0.6,0.4l3.7-1c0.3-0.1,0.4-0.3,0.4-0.6c-0.1-0.3-0.3-0.4-0.6-0.4c0,0,0,0,0,0l-3.3,0.9l-0.9-3.3
			C-754.7,909.3-754.8,909.2-754.9,909.1z"/>
		<path id="path24025" class="st2" d="M-757.2,912.1c-0.2-0.1-0.5-0.1-0.7,0.2c-0.1,0.1-0.1,0.3,0,0.4l1.2,4.4
			c0.1,0.3,0.3,0.4,0.6,0.4l4.4-1.2c0.3-0.1,0.4-0.3,0.4-0.6c-0.1-0.3-0.3-0.4-0.6-0.4c0,0,0,0,0,0l-3.9,1.1l-1.1-3.9
			C-757,912.3-757.1,912.2-757.2,912.1z"/>
		<path id="path24033" class="st2" d="M-759.5,915.5c-0.2-0.1-0.5-0.1-0.7,0.2c-0.1,0.1-0.1,0.3,0,0.4l1.3,4.8
			c0.1,0.3,0.3,0.4,0.6,0.4l4.8-1.3c0.3-0.1,0.4-0.3,0.4-0.6c-0.1-0.3-0.3-0.4-0.6-0.4c0,0,0,0,0,0l-4.3,1.2l-1.2-4.3
			C-759.2,915.6-759.3,915.5-759.5,915.5z"/>
	</g>
</g>
</svg>
